<?xml version="1.0" encoding="utf-8"?>
<!-- Generator: Adobe Illustrator 19.2.0, SVG Export Plug-In . SVG Version: 6.00 Build 0)  -->
<svg version="1.1" id="Layer_1" xmlns="http://www.w3.org/2000/svg" xmlns:xlink="http://www.w3.org/1999/xlink" x="0px" y="0px"
	 viewBox="0 0 32 32" style="enable-background:new 0 0 32 32;" xml:space="preserve">
<style type="text/css">
	.st0{display:none;}
	.st1{display:inline;fill:#686868;}
	.st2{display:inline;fill:#FFFFFF;}
	.st3{display:inline;fill:#D8D8D8;}
	.st4{fill:#686868;}
	.st5{fill:#FFFFFF;}
</style>
<g class="st0">
	
		<ellipse transform="matrix(6.191442e-002 -0.9981 0.9981 6.191442e-002 198.9288 86.4992)" class="st1" cx="145.5" cy="-62.6" rx="16" ry="16"/>
	<path class="st2" d="M135.2-69.3v0.7l10.2,7.1l10.2-7.1v-0.7H135.2z M135.2-69.3"/>
	<path class="st2" d="M145.5-56.8l-6-4.2l-4.2-2.9v8.1h20.5V-64l-4.2,2.9L145.5-56.8z"/>
</g>
<g class="st0">
	
		<ellipse transform="matrix(6.191442e-002 -0.9981 0.9981 6.191442e-002 157.3089 125.6173)" class="st3" cx="145.5" cy="-20.9" rx="16" ry="16"/>
	<path class="st2" d="M153.5-29.6c-0.1,0.1-0.2,0.2-0.3,0.3c-0.6,0.4-0.8,0.9-0.7,1.6c0,0.1,0.1,0.2,0.1,0.4c0,0.1,0.1,0.3,0.1,0.4
		c0,2,0,4-0.1,6c0,0.5-0.2,0.7-0.6,0.7c-0.4,0-0.7-0.3-0.7-0.8c0-0.9,0-1.9,0-2.8c0-1,0.1-1.9,0.1-2.9c0-0.2,0.2-0.5,0.3-0.7
		c0.1-0.3,0.1-0.6,0.1-0.9c0,0-0.1,0-0.1,0c-0.9,0.7-1.8,1.4-2.7,2.1c0.1,0.6,0.3,1,0.3,1.5c0.1,1.2-0.4,2.2-1.3,2.9
		c-0.3,0.3-0.7,0.5-1,0.9c-0.4,0.4-0.4,0.9,0,1.3c0.5,0.5,1,1,1.5,1.4c1,0.8,1.5,1.9,1.4,3.2c-0.1,1.4-1,2.3-2.2,2.9
		c-0.9,0.4-1.9,0.6-2.9,0.6c-1.4,0-2.9-0.3-4.1-1.1c-1-0.7-1.5-1.6-1.2-2.7c0.1-0.6,0.5-1.1,0.9-1.5c1.1-1.1,2.4-1.5,3.9-1.6
		c0.4,0,0.8,0,1.2,0c-0.7-0.8-0.9-1.5-0.4-2.4c-1.2,0-2.2-0.2-3.1-0.9c-0.9-0.8-1.3-1.7-1.3-2.9c-0.7,0-1.3,0-2,0c-0.6,0-1.3,0-2,0
		c0.1-0.1,0.2-0.2,0.3-0.3c1.9-1.6,3.8-3.2,5.7-4.8c0.1-0.1,0.1-0.1,0.2-0.2C146.6-29.8,150.1-29.7,153.5-29.6z M145.2-12.3
		c0.9,0,1.6-0.1,2.4-0.5c1.3-0.6,1.8-2.8,0.3-3.9c-0.3-0.2-0.7-0.5-1-0.8c-0.1-0.1-0.2-0.1-0.3-0.2c-1.3-0.4-2.5-0.2-3.7,0.5
		c-1.5,0.9-1.7,2.5-0.5,3.8C143.1-12.5,144.1-12.3,145.2-12.3z M142.8-24.8c0,0.1,0,0.2,0,0.3c0.1,1.2,0.6,2.3,1.7,3
		c0.9,0.6,2,0.5,2.6-0.4c0.3-0.4,0.4-0.9,0.5-1.4c0.2-1.4-0.6-3.1-1.8-3.8c-0.9-0.6-2.1-0.4-2.6,0.5
		C142.9-26.1,142.8-25.5,142.8-24.8z"/>
</g>
<g>
	
		<ellipse transform="matrix(6.191442e-002 -0.9981 0.9981 6.191442e-002 -0.9599 30.9787)" class="st4" cx="16" cy="16" rx="16" ry="16"/>
	<path class="st5" d="M24,7.2c-0.1,0.1-0.2,0.2-0.3,0.3c-0.6,0.4-0.8,0.9-0.7,1.6c0,0.1,0.1,0.2,0.1,0.4c0,0.1,0.1,0.3,0.1,0.4
		c0,2,0,4-0.1,6c0,0.5-0.2,0.7-0.6,0.7c-0.4,0-0.7-0.3-0.7-0.8c0-0.9,0-1.9,0-2.8c0-1,0.1-1.9,0.1-2.9c0-0.2,0.2-0.5,0.3-0.7
		c0.1-0.3,0.1-0.6,0.1-0.9c0,0-0.1,0-0.1,0c-0.9,0.7-1.8,1.4-2.7,2.1c0.1,0.6,0.3,1,0.3,1.5c0.1,1.2-0.4,2.2-1.3,2.9
		c-0.3,0.3-0.7,0.5-1,0.9c-0.4,0.4-0.4,0.9,0,1.3c0.5,0.5,1,1,1.5,1.4c1,0.8,1.5,1.9,1.4,3.2c-0.1,1.4-1,2.3-2.2,2.9
		c-0.9,0.4-1.9,0.6-2.9,0.6c-1.4,0-2.9-0.3-4.1-1.1c-1-0.7-1.5-1.6-1.2-2.7c0.1-0.6,0.5-1.1,0.9-1.5c1.1-1.1,2.4-1.5,3.9-1.6
		c0.4,0,0.8,0,1.2,0c-0.7-0.8-0.9-1.5-0.4-2.4c-1.2,0-2.2-0.2-3.1-0.9c-0.9-0.8-1.3-1.7-1.3-2.9c-0.7,0-1.3,0-2,0c-0.6,0-1.3,0-2,0
		c0.1-0.1,0.2-0.2,0.3-0.3c1.9-1.6,3.8-3.2,5.7-4.8c0.1-0.1,0.1-0.1,0.2-0.2C17.2,7.1,20.6,7.2,24,7.2z M15.7,24.6
		c0.9,0,1.6-0.1,2.4-0.5c1.3-0.6,1.8-2.8,0.3-3.9c-0.3-0.2-0.7-0.5-1-0.8c-0.1-0.1-0.2-0.1-0.3-0.2c-1.3-0.4-2.5-0.2-3.7,0.5
		c-1.5,0.9-1.7,2.5-0.5,3.8C13.6,24.4,14.7,24.6,15.7,24.6z M13.3,12c0,0.1,0,0.2,0,0.3c0.1,1.2,0.6,2.3,1.7,3
		c0.9,0.6,2,0.5,2.6-0.4c0.3-0.4,0.4-0.9,0.5-1.4c0.2-1.4-0.6-3.1-1.8-3.8c-0.9-0.6-2.1-0.4-2.6,0.5C13.4,10.8,13.3,11.4,13.3,12z"
		/>
</g>
</svg>
